<svg xmlns="http://www.w3.org/2000/svg" viewBox="0 0 46.91 46.91"><defs><style>.cls-1{isolation:isolate;}.cls-2{fill:#0068d9;}.cls-3{opacity:0.18;}.cls-4{mix-blend-mode:multiply;}.cls-5{fill:#fff;}</style></defs><g class="cls-1"><g id="Layer_2" data-name="Layer 2"><g id="Layer_1-2" data-name="Layer 1"><circle id="Ellipse_4" data-name="Ellipse 4" class="cls-2" cx="23.45" cy="23.45" r="23.45"/><g class="cls-3"><path class="cls-4" d="M43.31,35.93l-8.13-9.58H30.62l-11.16-13L14.88,31,28.22,46.42A23.48,23.48,0,0,0,43.31,35.93Z"/></g><path class="cls-5" d="M15.26,11.39,14,11.32V27.81c0,.18,0,.37,0,.56a6,6,0,0,0,6,5.28l1.06,0V17.19a5.78,5.78,0,0,0-.24-1.65A6,6,0,0,0,15.26,11.39Z"/><path class="cls-5" d="M28.81,26.35a5.63,5.63,0,0,0-.58,0,6.32,6.32,0,0,0-5.52,6.2l0,1.11h6.37a6.05,6.05,0,0,0,6.05-6l.08-1.37Z"/></g></g></g></svg>