<?xml version="1.0" encoding="UTF-8"?>
<!-- Generator: Adobe Illustrator 24.1.0, SVG Export Plug-In . SVG Version: 6.00 Build 0)  -->
<svg version="1.1" id="Layer_1" xmlns="http://www.w3.org/2000/svg" xmlns:xlink="http://www.w3.org/1999/xlink" x="0px" y="0px" viewBox="0 0 196.4783936 48.9698944" style="enable-background:new 0 0 196.4783936 48.9698944;" xml:space="preserve">
<style type="text/css">
	.st0{fill:#E31837;}
</style>
<rect y="18.9746017" width="11.6384983" height="29.9589996"/>
<path d="M39.6671982,35.9920006c-0.2140045-0.5900002-0.5620041-1.1679993-1.0220032-1.6479988  c-0.9069977-0.9449997-1.6920013-1.1790009-2.2419968-1.6520004c1.2200012-0.7060013,2.0069962-0.9630013,2.8740005-2.6350021  c0.9929962-1.9239998,0.9440002-4.5789986,0.5879974-6.6469994c-0.2290039-1.3050003-1.0630035-2.5760002-1.9670029-3.5009995  l-0.5889969-0.4679985l-0.9440002-0.3540001l-1.2549973-0.1119995H13.5671978l-0.0119972,29.9589958h11.8319969  c-0.0079994-4.0029984,0-12.3699951,0-12.3969955c0,0.0130005,1.151001-0.0100021,1.2639999,0.0059967  c1.8889999,0.3170013,1.4630013,2.7990036,1.4550018,4.6019974c-0.012001,2.0849991,0.0050011,7.7890015,0.0029984,7.7890015  h11.7579975c0.0100021,0-0.0279999-6.9899979-0.0279999-7.5899963  C39.8351974,39.5850029,40.2641983,37.6480026,39.6671982,35.9920006 M27.4782009,29.3490028  c-0.6760025,0.3829994-1.5350037,0.329998-2.1240005,0.3509979v-4.1660004l1.4139977,0.0779991  c0,0,0.7040024,0.4290009,0.7100029,0.4340019C28.6651974,27.1450005,27.7541981,29.1920013,27.4782009,29.3490028"/>
<path d="M59.7787933,18.9745979h-9.9400024c-6.7829971-0.1459999-8.3769989,3.5270004-8.3769989,7.5740013v15.1559982  c-0.1399994,4.7750015,3.0879974,7.3219986,8.3769989,7.2289963h9.9400024c6.9469986,0.0930023,8.375-3.1759949,8.375-7.2289963  V26.5485992C68.1537933,22.5015984,66.4917908,18.828598,59.7787933,18.9745979 M56.3177948,40.5736008  c0,0.9689941-0.8460007,1.7569962-1.890007,1.7569962c-1.0439987,0-1.8869934-0.788002-1.8869934-1.7569962v-13.387001  c0-0.9750023,0.8429947-1.7630005,1.8869934-1.7630005c1.0440063,0,1.890007,0.7879982,1.890007,1.7630005V40.5736008z"/>
<polygon points="85.1321945,18.9747009 85.1321945,27.0546989 84.7141876,26.9976997 81.5881882,18.9747009 69.8521881,18.9747009   69.8381882,48.9337006 80.819191,48.9337006 80.8241882,38.0237007 81.2371902,38.0237007 85.1741943,48.9337006   96.2921906,48.9337006 96.2761917,18.9747009 "/>
<polygon points="179.5623932,18.9747009 179.5683899,27.9596977 175.8643799,18.9747009 164.4093933,18.9747009   164.3183899,48.9337006 175.2743835,48.9337006 175.2583923,37.4547005 175.6163788,37.4547005 179.9553833,48.9337006   190.71138,48.9337006 190.7123871,18.9747009 "/>
<path d="M151.3674774,48.9272995h12.0320129l-5.3100128-29.9529991h-18.9499969l-4.8789978,29.9529991h12.2669983  l0.6600037-7.1110001h3.1869965L151.3674774,48.9272995z M147.7444916,35.202301l0.7909851-7.4990005h0.4120026l0.8180084,7.4990005  H147.7444916z"/>
<path d="M191.5843964,46.5139008c0,1.3539963,1.098999,2.4559937,2.4490051,2.4559937  c1.345993,0,2.4449921-1.1019974,2.4449921-2.4559937c0-1.3600006-1.098999-2.4640045-2.4449921-2.4640045  C192.6833954,44.0498962,191.5843964,45.1539001,191.5843964,46.5139008 M192.1414032,46.5139008  c0-1.0530014,0.8469849-1.904007,1.8919983-1.904007c1.0379944,0,1.8880005,0.8510056,1.8880005,1.904007  c0,1.0469971-0.8500061,1.8989944-1.8880005,1.8989944C192.9883881,48.4128952,192.1414032,47.5608978,192.1414032,46.5139008"/>
<path d="M193.5258942,45.5133972h0.4089966c0.2339935,0,0.3739929,0.0050049,0.4219971,0.0210037  c0.0679932,0.0219955,0.125,0.060997,0.1629944,0.1169968c0.0410004,0.0569992,0.0559998,0.1300049,0.0559998,0.2249985  c0,0.0950012-0.0149994,0.1740036-0.0559998,0.2350006c-0.0379944,0.0550003-0.0930023,0.0970001-0.1599884,0.1150055  c-0.0600128,0.0179977-0.2120056,0.0289993-0.4460144,0.0289993h-0.3879852V45.5133972z M193.5258942,47.947403v-1.2240067  h0.1079865c0.1190033,0,0.2070007,0.0100021,0.2610016,0.0320053c0.0570068,0.022995,0.1080017,0.0619965,0.1569977,0.1240005  c0.0470123,0.0569992,0.1370087,0.1989975,0.2810059,0.4289932l0.375,0.6390076h0.6260071l-0.3190002-0.5670013  c-0.128006-0.2330017-0.2260132-0.3899994-0.3000031-0.4840012c-0.072998-0.0890045-0.1660004-0.1679993-0.2799988-0.2440033  c0.2180023-0.0329971,0.3860016-0.1209946,0.5069885-0.2639999c0.1150055-0.137001,0.1740112-0.322998,0.1740112-0.5530014  c0-0.1800003-0.0380096-0.3339996-0.1150055-0.4629974c-0.0749969-0.1299973-0.177002-0.2190018-0.2960052-0.276001  c-0.1229858-0.0509949-0.3199921-0.0789948-0.598999-0.0789948h-1.0950012v2.9300003H193.5258942z"/>
<path class="st0" d="M106.9873962,8.5740013C106.9873962,3.8390007,110.8903961,0,115.7503815,0  c4.8420105,0,8.7730103,3.8390007,8.7730103,8.5740013c0,4.7459984-3.9309998,8.5959969-8.7730103,8.5959969  C110.8903961,17.1699982,106.9873962,13.3199997,106.9873962,8.5740013"/>
<polygon class="st0" points="112.6325989,48.9336014 108.5825958,37.7956009 108.5825958,48.9336014 97.9875946,48.9336014   97.9485931,18.9746017 133.4015961,18.9746017 133.4415894,48.9336014 122.92659,48.9336014 122.9245911,37.7876015   119.0765839,48.9336014 "/>
<g>
</g>
<g>
</g>
<g>
</g>
<g>
</g>
<g>
</g>
<g>
</g>
</svg>